#!OML:ASF H:\BabyWalks\Project 1\Capture day 1\Session 1\baby.ASF
:FULLY-SPECIFIED
:DEGREES
852
root 14.9615 9.6826 -0.596579 -914.39 78.7647 -959.392
lowerback 39.0608 -9.00097 8.95768
upperback 4.84648 -6.27726 2.07556
thorax -14.1075 -2.74418 0.42793
lowerneck -1.79011 -0.218197 6.20626
upperneck -23.1325 -0.802372 -7.14466
head -6.76659 -0.0212542 -3.3874
rclavicle -8.12035e-014 1.08226e-013
rhumerus 25.0594 26.8936 -67.6385
rradius 36.704
rwrist 41.3467
rhand -71.8712 376.125
rfingers 7.12502
rthumb -43.3605 -7.99222
lclavicle -8.12035e-014 1.08226e-013
lhumerus 43.6345 -10.4141 51.7601
lradius 26.6725
lwrist -29.3945
lhand -49.2436 -15.0945
lfingers 7.12502
lthumb -21.8629 13.6904
rfemur -62.9791 -17.1068 13.1957
rtibia 130.288
rfoot 35.4639 20.3569
rtoes 27.8916
lfemur -30.1595 -17.5349 -24.8039
ltibia 105.352
lfoot 27.8245 -20.6307
ltoes 12.9331
853
root 15.043 9.68335 -0.595757 -913.153 79.2823 -958.392
lowerback 39.0468 -8.78888 8.99096
upperback 4.81688 -6.00159 2.13837
thorax -14.1174 -2.63274 0.351729
lowerneck -1.83509 -0.190462 6.11309
upperneck -23.1322 -0.788943 -7.26112
head -6.75635 0.00442541 -3.4106
rclavicle 4.75095e-014 -7.61345e-014
rhumerus 24.5582 27.3549 -67.4202
rradius 37.0231
rwrist 41.074
rhand -71.8874 377.013
rfingers 7.12502
rthumb -43.3757 -7.09835
lclavicle 4.75095e-014 -7.61345e-014
lhumerus 43.3724 -10.2001 52.6062
lradius 26.5771
lwrist -29.4381
lhand -49.9759 -16.6318
lfingers 7.12502
lthumb -22.566 12.0694
rfemur -62.5206 -16.6857 13.517
rtibia 130.55
rfoot 35.804 20.1057
rtoes 27.6462
lfemur -29.9598 -16.7707 -24.3874
ltibia 105.304
lfoot 27.8161 -20.7997
ltoes 12.8162
854
root 15.1236 9.68279 -0.597143 -911.927 79.8922 -957.445
lowerback 39.0146 -8.51047 8.96228
upperback 4.77778 -5.67245 2.21537
thorax -14.1246 -2.49732 0.296269
lowerneck -1.88409 -0.160757 5.98636
upperneck -23.1364 -0.775816 -7.38761
head -6.74668 0.0340042 -3.43142
rclavicle 1.59028e-014 3.39798e-014
rhumerus 24.0349 27.8317 -67.1777
rradius 37.3586
rwrist 40.746
rhand -71.8667 378.103
rfingers 7.12502
rthumb -43.3564 -6.01537
lclavicle 1.59028e-014 3.39798e-014
lhumerus 43.1425 -10.0852 53.2979
lradius 26.5008
lwrist -29.389
lhand -50.6123 -18.1933
lfingers 7.12502
lthumb -23.1767 10.4323
rfemur -62.0918 -16.1498 13.827
rtibia 130.796
rfoot 36.301 19.9319
rtoes 27.3822
lfemur -29.8018 -15.9044 -23.9618
ltibia 105.238
lfoot 27.7311 -20.9694
ltoes 12.7113
855
root 15.2031 9.68061 -0.599764 -910.693 80.5787 -956.532
lowerback 38.9574 -8.16856 8.86682
upperback 4.72985 -5.29613 2.30529
thorax -14.1272 -2.34017 0.265563
lowerneck -1.93664 -0.13136 5.82917
upperneck -23.1472 -0.765929 -7.52395
head -6.73867 0.0658544 -3.45026
rclavicle 9.90942e-014 1.82882e-014
rhumerus 23.4825 28.3166 -66.9264
rradius 37.7114
rwrist 40.3494
rhand -71.7978 379.321
rfingers 7.12502
rthumb -43.292 -4.82086
lclavicle 9.90942e-014 1.82882e-014
lhumerus 42.9254 -10.1114 53.8027
lradius 26.47
lwrist -29.1977
lhand -51.1678 -19.7226
lfingers 7.12502
lthumb -23.7095 8.83497
rfemur -61.697 -15.491 14.1286
rtibia 131.012
rfoot 36.8463 19.8214
rtoes 27.0573
lfemur -29.686 -14.9509 -23.5298
ltibia 105.158
lfoot 27.576 -21.1392
ltoes 12.602
856
root 15.2814 9.67693 -0.602709 -909.465 81.3224 -955.669
lowerback 38.8665 -7.76875 8.70041
upperback 4.67446 -4.88286 2.40289
thorax -14.1226 -2.16521 0.260898
lowerneck -2.00042 -0.10205 5.63847
upperneck -23.1617 -0.756562 -7.65738
head -6.72993 0.100477 -3.4624
rclavicle -1.69961e-014 2.88486e-014
rhumerus 22.8994 28.8029 -66.6818
rradius 38.0798
rwrist 39.8769
rhand -71.6825 380.547
rfingers 7.12502
rthumb -43.1842 -3.63334
lclavicle -1.69961e-014 2.88486e-014
lhumerus 42.7082 -10.3138 54.0798
lradius 26.515
lwrist -28.8095
lhand -51.6701 -21.1502
lfingers 7.12502
lthumb -24.1912 7.34417
rfemur -61.3545 -14.7065 14.4181
rtibia 131.191
rfoot 37.3591 19.7432
rtoes 26.6845
lfemur -29.6188 -13.9277 -23.1014
ltibia 105.063
lfoot 27.3621 -21.3038
ltoes 12.4896
857
root 15.3586 9.67197 -0.605239 -908.292 82.1051 -954.902
lowerback 38.7366 -7.31835 8.46013
upperback 4.61358 -4.44418 2.49988
thorax -14.109 -1.97692 0.280536
lowerneck -2.07167 -0.0750225 5.42254
upperneck -23.1919 -0.750348 -7.78826
head -6.72534 0.136358 -3.46962
rclavicle 1.49089e-015 1.37037e-014
rhumerus 22.2907 29.2922 -66.4476
rradius 38.4663
rwrist 39.3087
rhand -71.516 381.687
rfingers 7.12502
rthumb -43.0286 -2.54847
lclavicle 1.49089e-015 1.37037e-014
lhumerus 42.4823 -10.7015 54.1264
lradius 26.655
lwrist -28.2153
lhand -52.1383 -22.4417
lfingers 7.12502
lthumb -24.6401 5.99212
rfemur -61.0809 -13.8038 14.6886
rtibia 131.32
rfoot 37.7912 19.6708
rtoes 26.2668
lfemur -29.6043 -12.8512 -22.6904
ltibia 104.953
lfoot 27.1073 -21.4587
ltoes 12.3689
858
root 15.4358 9.6668 -0.606873 -907.143 82.9117 -954.185
lowerback 38.5774 -6.83349 8.15902
upperback 4.54953 -3.99313 2.58869
thorax -14.0898 -1.78086 0.317052
lowerneck -2.13618 -0.0513725 5.20561
upperneck -23.2507 -0.747743 -7.91598
head -6.73166 0.171593 -3.47629
rclavicle 8.07066e-014 1.11568e-014
rhumerus 21.6619 29.7874 -66.2364
rradius 38.8679
rwrist 38.6433
rhand -71.2992 382.552
rfingers 7.12502
rthumb -42.8258 -1.75508
lclavicle 8.07066e-014 1.11568e-014
lhumerus 42.2522 -11.2728 53.9185
lradius 26.9052
lwrist -27.3944
lhand -52.5771 -23.5912
lfingers 7.12502
lthumb -25.0606 4.78464
rfemur -60.8646 -12.7702 14.9467
rtibia 131.376
rfoot 38.1172 19.5555
rtoes 25.8301
lfemur -29.6262 -11.7321 -22.2947
ltibia 104.82
lfoot 26.8185 -21.6012
ltoes 12.2624
